<?xml version="1.0" encoding="UTF-8"?>
<svg id="Layer_1" data-name="Layer 1" xmlns="http://www.w3.org/2000/svg" viewBox="0 0 158.37 158.37">
  <defs>
    <style>
      .cls-1 {
        fill: #fdfefe;
      }

      .cls-2 {
        stroke: #e07870;
      }

      .cls-2, .cls-3 {
        fill: none;
        stroke-miterlimit: 10;
      }

      .cls-3 {
        stroke: #384140;
      }

      .cls-4 {
        fill: #e07870;
        font-family: BodoniMT, 'Bodoni MT';
        font-size: 60.99px;
        letter-spacing: -.1em;
      }

      .cls-5 {
        fill: #adb5b3;
        font-family: AvenirNextLTPro-Regular, 'Avenir Next LT Pro';
        font-size: 25.9px;
      }
    </style>
  </defs>
  <circle class="cls-1" cx="79.18" cy="79.18" r="78.68"/>
  <text class="cls-5" transform="translate(39.54 44.3) rotate(-41.33)"><tspan x="0" y="0">g</tspan></text>
  <text class="cls-5" transform="translate(52.72 33.46) rotate(-26.08)"><tspan x="0" y="0">r</tspan></text>
  <text class="cls-5" transform="translate(61.61 28.9) rotate(-12.24)"><tspan x="0" y="0">a</tspan></text>
  <text class="cls-5" transform="translate(75.55 25.75) rotate(5.08)"><tspan x="0" y="0">p</tspan></text>
  <text class="cls-5" transform="translate(92.22 27.38) rotate(23.21)"><tspan x="0" y="0">h</tspan></text>
  <text class="cls-5" transform="translate(106.75 34.29) rotate(36.53)"><tspan x="0" y="0">i</tspan></text>
  <text class="cls-5" transform="translate(113.06 38.69) rotate(48.72)"><tspan x="0" y="0">c</tspan></text>
  <text class="cls-5" transform="translate(30.4 126.62) rotate(37.76)"><tspan x="0" y="0">d</tspan></text>
  <text class="cls-5" transform="translate(48.83 139.54) rotate(19.78)"><tspan x="0" y="0">e</tspan></text>
  <text class="cls-5" transform="translate(68.36 145.5) rotate(4.17)"><tspan x="0" y="0">s</tspan></text>
  <text class="cls-5" transform="translate(84.78 145.95) rotate(-7.27)"><tspan x="0" y="0">i</tspan></text>
  <text class="cls-5" transform="translate(96.59 144.39) rotate(-21.26)"><tspan x="0" y="0">g</tspan></text>
  <text class="cls-5" transform="translate(117.04 135.3) rotate(-39.25)"><tspan x="0" y="0">n</tspan></text>
  <path class="cls-2" d="M34.22,117.65c-8.8-10.31-14.1-23.69-14.1-38.31,0-13.21,4.34-25.41,11.67-35.25"/>
  <path class="cls-2" d="M131.61,52.12c4.24,8.15,6.63,17.4,6.63,27.22,0,14.84-5.47,28.4-14.51,38.77"/>
  <text class="cls-4" transform="translate(41.25 97.47) scale(.97 1)"><tspan x="0" y="0">JM</tspan></text>
  <circle class="cls-3" cx="79.18" cy="79.18" r="78.68"/>
</svg>