<?xml version="1.0" encoding="utf-8"?>
<!-- Generator: Adobe Illustrator 22.0.1, SVG Export Plug-In . SVG Version: 6.00 Build 0)  -->
<svg version="1.1" id="Layer_1" xmlns="http://www.w3.org/2000/svg" xmlns:xlink="http://www.w3.org/1999/xlink" x="0px" y="0px"
	 viewBox="0 0 68 68" style="enable-background:new 0 0 68 68;" xml:space="preserve">
<style type="text/css">
	.st0{fill:#E9EDF4;}
	.st1{fill:#9CE843;}
	.st2{fill:#4FE88D;}
	.st3{fill:#D2DBEA;}
	.st4{fill:#E5F5F9;}
	.st5{fill:#387BFE;}
	.st6{fill:#1273FF;}
	.st7{fill:#F14F4A;}
	.st8{fill:#FFC90D;}
	.st9{fill:#76BDFF;}
	.st10{fill:#FFFFFF;}
	.st11{fill:#8CC2FE;}
	.st12{fill:#342C37;}
	.st13{fill:#69ADFE;}
	.st14{fill:#8DD1FE;}
	.st15{fill:#FFAB02;}
	.st16{fill:#78D119;}
	.st17{fill:#00AEFF;}
	.st18{fill:#B5705B;}
	.st19{fill:#0AA055;}
	.st20{fill:none;}
	.st21{fill:#E23737;}
</style>
<g>
	<g>
		<g>
			<g>
				<g>
					<circle class="st8" cx="18.5918045" cy="27.4357185" r="10.8365288"/>
				</g>
			</g>
		</g>
		<g>
			<g>
				<g>
					<g>
						<path class="st8" d="M18.591898,14.3868723c-0.4749947,0-0.8603668-0.3853722-0.8603668-0.8603659v-1.8585234
							c0-0.4749937,0.3853722-0.8603659,0.8603668-0.8603659c0.4749928,0,0.8603649,0.3853722,0.8603649,0.8603659v1.8585234
							C19.4522629,14.0015001,19.0668907,14.3868723,18.591898,14.3868723z"/>
					</g>
				</g>
			</g>
			<g>
				<g>
					<g>
						<path class="st8" d="M18.591898,44.0638809c-0.4749947,0-0.8603668-0.3853722-0.8603668-0.8603668v-1.8585243
							c0-0.4749947,0.3853722-0.8603668,0.8603668-0.8603668c0.4749928,0,0.8603649,0.3853722,0.8603649,0.8603668v1.8585243
							C19.4522629,43.6785088,19.0668907,44.0638809,18.591898,44.0638809z"/>
					</g>
				</g>
			</g>
		</g>
		<g>
			<g>
				<g>
					<g>
						<path class="st8" d="M8.7559481,18.4607258c-0.2206926,0-0.4402647-0.0840206-0.608305-0.2520618l-1.314074-1.3140736
							c-0.3360801-0.3360806-0.3360801-0.8805294,0-1.21661c0.3360806-0.3360806,0.8805304-0.3360806,1.2166104,0
							L9.364254,16.992054c0.3360796,0.3360806,0.3360796,0.8805313,0,1.21661
							C9.1962137,18.3767052,8.9766407,18.4607258,8.7559481,18.4607258z"/>
					</g>
				</g>
			</g>
			<g>
				<g>
					<g>
						<path class="st8" d="M29.7419205,39.4455757c-0.2195721,0-0.4402657-0.0840187-0.608305-0.2514992l-1.3151951-1.3140755
							c-0.3360806-0.3360786-0.3360806-0.8810883,0-1.2171707c0.3349609-0.3355179,0.8794098-0.3360786,1.2166119-0.0005569
							l1.3151932,1.3140717c0.3360806,0.3360825,0.3360806,0.8810921,0,1.2171707
							C30.1821861,39.361557,29.9626122,39.4455757,29.7419205,39.4455757z"/>
					</g>
				</g>
			</g>
		</g>
		<g>
			<g>
				<g>
					<g>
						<path class="st8" d="M4.6826553,28.296114H2.8241317c-0.4749935,0-0.8603655-0.3853722-0.8603655-0.8603649
							c0-0.4749947,0.385372-0.8603668,0.8603655-0.8603668h1.8585236c0.4749937,0,0.8603659,0.3853722,0.8603659,0.8603668
							C5.5430212,27.9107418,5.157649,28.296114,4.6826553,28.296114z"/>
					</g>
				</g>
			</g>
			<g>
				<g>
					<g>
						<path class="st8" d="M34.3596649,28.2955532h-1.8585243c-0.4749947,0-0.8603668-0.3853722-0.8603668-0.8603649
							s0.3853722-0.8603649,0.8603668-0.8603649h1.8585243c0.4749908,0,0.860363,0.3853722,0.860363,0.8603649
							S34.8346558,28.2955532,34.3596649,28.2955532z"/>
					</g>
				</g>
			</g>
		</g>
		<g>
			<g>
				<g>
					<g>
						<path class="st8" d="M7.4418745,39.4455757c-0.2206926,0-0.4402652-0.0840187-0.6083055-0.2520599
							c-0.3360801-0.3360786-0.3360801-0.8810883,0-1.21661l1.3151946-1.3146324c0.3360796-0.3366432,0.8805304-0.3355217,1.21661,0
							c0.3360806,0.3360786,0.3360806,0.8810883,0,1.21661l-1.3151941,1.3146324
							C7.8821397,39.361557,7.661447,39.4455757,7.4418745,39.4455757z"/>
					</g>
				</g>
			</g>
			<g>
				<g>
					<g>
						<path class="st8" d="M28.4267254,18.4607258c-0.2206917,0-0.4402637-0.0840206-0.608305-0.2520618
							c-0.3360806-0.3355198-0.3360806-0.8805294,0-1.21661l1.3140736-1.3146334
							c0.3360806-0.3360806,0.8805313-0.3360806,1.2166119,0c0.3360806,0.3355188,0.3360806,0.8805304,0,1.2166109
							l-1.3140736,1.3146324C28.866991,18.3767052,28.647419,18.4607258,28.4267254,18.4607258z"/>
					</g>
				</g>
			</g>
		</g>
	</g>
	<g>
		<g>
			<g>
				<g>
					<path class="st0" d="M66.036232,46.6209946c0,5.8416405-4.7220993,10.5713882-10.5557098,10.5713882H20.1877003
						c-5.8338013,0-10.5713863-4.7297478-10.5713863-10.5713882c0-5.8259621,4.7375851-10.5557098,10.5713863-10.5557098
						c0.0078392,0,0.0154858,0,0.0154858,0c0.7127113,0,1.3078499-0.5559464,1.2686577-1.2606277
						c-0.062706-1.3470421,0.0548687-2.7407303,0.4855919-4.2365074c1.5112648-5.3093987,6.1861439-9.2794037,11.6911163-9.7256145
						c5.2543411-0.4305325,9.9135437,2.176754,12.4428291,6.2564964c0.2584763,0.4152393,0.7517128,0.6110058,1.2373085,0.5326214
						c0.4620743-0.0860291,0.93964-0.125412,1.4252319-0.125412c4.4712753,0,8.1359673,3.5237961,8.5588531,7.8857155
						c0.0470314,0.4855919,0.3993721,0.9004478,0.8690948,1.0254784c2.1222687,0.5639763,3.9937134,1.769928,5.3640785,3.3987656
						C65.096405,41.6564827,66.036232,44.0290031,66.036232,46.6209946z"/>
				</g>
			</g>
		</g>
	</g>
</g>
</svg>
